<svg width="120" height="120" viewBox="0 0 120 120" fill="none" xmlns="http://www.w3.org/2000/svg">
<path d="M119.845 59.8089C119.845 50.7055 117.768 41.7222 113.77 33.5434C109.773 25.3645 103.962 18.2059 96.7795 12.6127C89.597 7.01962 81.2327 3.1396 72.3238 1.26825C63.4148 -0.603096 54.1963 -0.416398 45.3704 1.81412C36.5445 4.04465 28.3442 8.26015 21.394 14.1395C14.4439 20.0188 8.92729 27.4069 5.26453 35.7409C1.60177 44.0749 -0.110546 53.1349 0.258035 62.2308C0.626616 71.3267 3.06637 80.2185 7.39143 88.2288L20.5504 81.1239C17.3066 75.1161 15.4767 68.4473 15.2003 61.6253C14.9239 54.8034 16.2081 48.0084 18.9552 41.7579C21.7023 35.5074 25.8397 29.9663 31.0523 25.5568C36.2649 21.1473 42.4152 17.9857 49.0346 16.3128C55.654 14.6399 62.5679 14.4999 69.2496 15.9034C75.9313 17.3069 82.2045 20.2169 87.5914 24.4118C92.9783 28.6066 97.3367 33.9756 100.335 40.1098C103.332 46.2439 104.891 52.9814 104.891 59.8089H119.845Z" fill="#2F80ED"/>
<path d="M7.05949 87.6053C13.3788 99.6472 23.6127 109.176 36.0741 114.622C48.5355 120.067 62.4805 121.104 75.6102 117.562C88.7399 114.019 100.271 106.108 108.301 95.1332C116.332 84.1584 120.384 70.7747 119.788 57.1885L104.848 57.8436C105.294 68.0332 102.256 78.071 96.2328 86.3021C90.2098 94.5333 81.5617 100.466 71.7145 103.123C61.8672 105.78 51.4084 105.003 42.0624 100.919C32.7163 96.8345 25.0409 89.6876 20.3014 80.6562L7.05949 87.6053Z" fill="#EB5757"/>
</svg>
