<svg width="36" height="36" viewBox="0 0 36 36" fill="none" xmlns="http://www.w3.org/2000/svg">
<path d="M8.92027 20.3301C10.1388 20.3301 11.1267 19.3422 11.1267 18.1237C11.1267 16.9051 10.1388 15.9172 8.92027 15.9172C7.70171 15.9172 6.71387 16.9051 6.71387 18.1237C6.71387 19.3422 7.70171 20.3301 8.92027 20.3301Z" fill="#828282"/>
<path d="M17.7464 20.3301C18.965 20.3301 19.9529 19.3422 19.9529 18.1237C19.9529 16.9051 18.965 15.9172 17.7464 15.9172C16.5279 15.9172 15.54 16.9051 15.54 18.1237C15.54 19.3422 16.5279 20.3301 17.7464 20.3301Z" fill="#828282"/>
<path d="M26.5716 20.3301C27.7902 20.3301 28.778 19.3422 28.778 18.1237C28.778 16.9051 27.7902 15.9172 26.5716 15.9172C25.3531 15.9172 24.3652 16.9051 24.3652 18.1237C24.3652 19.3422 25.3531 20.3301 26.5716 20.3301Z" fill="#828282"/>
</svg>
